<svg xmlns="http://www.w3.org/2000/svg" height="250.45" viewBox="0 0 250 250.4511" width="250"><g transform="matrix(1.25 0 0 -1.25 -350.23 967.84)"><g><path d="m380.12 773.39c54.688 0 99.192-44.59 99.192-99.392 0-54.792-44.503-99.369-99.192-99.369-54.698 0-99.208 44.578-99.208 99.369 0 54.801 44.51 99.392 99.208 99.392" fill="#b3995d"/><path d="m124.91 5.4023c-66 0-119.71 53.793-119.71 119.94-0.0027 66.12 53.71 119.91 119.71 119.91 66.01 0 119.7-53.79 119.7-119.91 0-66.145-53.69-119.94-119.7-119.94zm1.37 7.6957l0.01 0.363c-0.08 0.004-0.21 0.024-0.37 0.072-0.14 0.053-0.25 0.129-0.31 0.262l-4.12 7.535 0.2 3.895c0.02 0.201 0.09 0.342 0.2 0.39 0.13 0.053 0.26 0.089 0.39 0.102l0.01 0.349-4.67 0.235-0.02-0.352c0.12-0.024 0.25-0.068 0.38-0.129 0.11-0.064 0.17-0.208 0.17-0.422l-0.19-3.761-5.35-7.19c-0.06-0.112-0.19-0.18-0.35-0.213-0.16-0.024-0.3-0.041-0.42-0.041l-0.01-0.341 5.6-0.5 0.02 0.345c-0.12 0.008-0.25 0.032-0.39 0.069-0.16 0.032-0.22 0.122-0.21 0.271 0 0.109 0.09 0.365 0.26 0.623 0.19 0.254 2.18 2.852 2.47 3.231 0.06-0.157 1.62-2.952 1.8-3.315 0.19-0.362 0.31-0.669 0.31-0.762 0-0.165-0.1-0.249-0.24-0.273-0.14-0.021-0.25-0.033-0.35-0.029l-0.01-0.346 5.19-0.068zm-17.34 0.398l0.86 4.205-0.31 0.057c-0.06-0.266-0.14-0.415-0.26-0.467-0.12-0.068-0.24-0.081-0.35-0.061l-3.7 0.745 1.76 8.816c0.03 0.218 0.12 0.335 0.27 0.367 0.13 0.024 0.3 0.05 0.43 0.037l0.07 0.338-4.69 0.949-0.06-0.349c0.13-0.04 0.26-0.105 0.37-0.197 0.12-0.077 0.16-0.23 0.12-0.44l-1.76-8.82-3.721 0.746c-0.105 0.024-0.189 0.087-0.281 0.183-0.093 0.093-0.106 0.287-0.049 0.557l-0.33 0.053-0.846-4.201 0.314-0.061c0.073 0.278 0.149 0.44 0.27 0.496 0.121 0.049 0.225 0.073 0.33 0.049l10.923-2.203v-0.002c0.12-0.024 0.19-0.079 0.29-0.176 0.08-0.096 0.1-0.282 0.05-0.56l0.3-0.061zm35.66 1.324c0.42 0.015 0.84 0.061 1.25 0.131 0.82 0.161 1.6 0.443 2.4 0.842 0.77 0.411 1.45 0.941 2.02 1.594 0.57 0.652 0.99 1.426 1.24 2.328 0.26 0.902 0.28 1.933 0.07 3.056-0.2 1.152-0.59 2.091-1.16 2.833-0.58 0.729-1.25 1.296-2.03 1.687-0.76 0.395-1.57 0.629-2.45 0.701-0.86 0.077-1.71 0.036-2.52-0.117-0.82-0.161-1.62-0.44-2.42-0.822-0.77-0.391-1.43-0.893-2.01-1.541-0.58-0.641-0.98-1.411-1.26-2.309-0.25-0.894-0.26-1.909-0.05-3.049 0.2-1.148 0.58-2.083 1.16-2.832 0.58-0.741 1.25-1.312 2.03-1.715 0.76-0.398 1.56-0.649 2.45-0.742 0.44-0.046 0.86-0.06 1.28-0.045zm11.56 2.715l10.89 3.815c0.09 0.032 0.22 0.032 0.35-0.004 0.12-0.041 0.24-0.198 0.33-0.455l0.3 0.105-1.3 3.75-0.31-0.109c0.09-0.278 0.1-0.471 0.04-0.588-0.08-0.125-0.16-0.195-0.25-0.223l-6.8-2.363-0.87 2.549 4.58 1.599c0.08 0.033 0.21 0.033 0.34-0.007 0.11-0.037 0.21-0.186 0.31-0.444l0.32 0.102-1.29 3.713-0.31-0.11c0.1-0.278 0.12-0.475 0.04-0.599-0.07-0.117-0.17-0.189-0.25-0.221l-4.6-1.6-1.3 3.758c-0.08 0.21-0.06 0.363 0.07 0.455 0.11 0.101 0.28 0.201 0.46 0.285l-0.11 0.34-4.79-1.486 0.11-0.326c0.2 0.056 0.38 0.076 0.54 0.072 0.14-0.016 0.27-0.121 0.34-0.322l3.65-10.594c0.08-0.205 0.05-0.354-0.07-0.463-0.13-0.097-0.3-0.194-0.51-0.299l0.09-0.33zm-63.445 0.254l0.121 0.346c-0.278 0.109-0.438 0.206-0.559 0.306-0.124 0.105-0.144 0.258-0.08 0.467l3.483 10.617c0.064 0.21 0.182 0.307 0.367 0.311 0.141 0.012 0.337-0.016 0.611-0.08l0.117 0.33-5.009 1.631-0.106-0.33c0.246-0.097 0.428-0.198 0.561-0.311 0.12-0.101 0.148-0.25 0.08-0.447l-3.5-10.629c-0.093-0.205-0.197-0.322-0.338-0.326-0.161-0.008-0.379 0.019-0.641 0.088l-0.105-0.338 4.998-1.635zm51.845 0.133c-0.24-0.004-0.48 0.016-0.72 0.057-0.45 0.084-0.87 0.238-1.27 0.476-0.38 0.242-0.7 0.543-0.97 0.93-0.25 0.39-0.44 0.854-0.55 1.398-0.09 0.536-0.09 1.03 0.02 1.481 0.09 0.463 0.28 0.87 0.56 1.228 0.25 0.355 0.61 0.657 1.02 0.91 0.39 0.234 0.84 0.412 1.31 0.496 0.52 0.105 0.99 0.105 1.45 0.016 0.46-0.072 0.88-0.237 1.26-0.467 0.39-0.233 0.71-0.55 0.97-0.941 0.28-0.379 0.44-0.843 0.56-1.383 0.09-0.536 0.09-1.035 0-1.49-0.12-0.451-0.29-0.866-0.57-1.229-0.28-0.358-0.62-0.656-1.01-0.902-0.39-0.238-0.86-0.414-1.36-0.494-0.23-0.055-0.47-0.083-0.7-0.086zm-60.886 3.336l0.082 4.015-0.391-0.011c-0.02-0.037-0.028-0.08-0.049-0.145-0.012-0.06-0.028-0.113-0.041-0.17-0.052-0.064-0.189-0.105-0.451-0.125-0.233-0.02-0.534-0.007-0.892 0.033-0.355 0.033-0.763 0.097-1.186 0.202-0.427 0.112-0.845 0.254-1.264 0.447-0.157 0.064-0.395 0.171-0.693 0.316-0.302 0.153-0.576 0.347-0.846 0.565-0.265 0.213-0.491 0.459-0.66 0.72-0.161 0.25-0.162 0.54-0.037 0.842 0.141 0.302 0.467 0.453 0.902 0.408 0.431-0.048 0.972-0.166 1.6-0.351 0.632-0.197 1.324-0.394 2.033-0.611 0.725-0.214 1.458-0.347 2.143-0.383 0.697-0.036 1.33 0.068 1.922 0.322 0.584 0.258 1.068 0.777 1.406 1.566 0.25 0.512 0.361 1.044 0.361 1.616 0.012 0.56-0.112 1.115-0.402 1.683-0.246 0.564-0.686 1.075-1.27 1.574-0.576 0.496-1.319 0.951-2.242 1.366-0.592 0.266-1.201 0.496-1.842 0.693-0.616 0.193-1.215 0.35-1.763 0.459-0.556 0.121-1.006 0.198-1.393 0.254-0.366 0.052-0.58 0.097-0.629 0.117-0.104 0.053-0.19 0.141-0.234 0.254-0.069 0.125-0.096 0.244-0.141 0.373l-0.322 0.037-0.619-4.008 0.377 0.012c0.016 0.044 0.029 0.077 0.045 0.121 0.02 0.053 0.04 0.113 0.068 0.182 0.073 0.185 0.307 0.275 0.697 0.291 0.375 0.02 0.818-0.017 1.369-0.094 0.54-0.088 1.096-0.217 1.696-0.394 0.592-0.17 1.128-0.371 1.603-0.596 0.149-0.069 0.339-0.166 0.588-0.299 0.258-0.129 0.475-0.289 0.668-0.486 0.202-0.19 0.364-0.408 0.465-0.629 0.093-0.23 0.083-0.478-0.021-0.744-0.19-0.355-0.487-0.529-0.946-0.496-0.455 0.028-0.991 0.14-1.603 0.33-0.649 0.193-1.309 0.399-2.033 0.621-0.734 0.229-1.43 0.366-2.135 0.406-0.689 0.056-1.327-0.04-1.903-0.273-0.576-0.246-1.034-0.734-1.377-1.483-0.177-0.403-0.298-0.887-0.318-1.451-0.02-0.556 0.085-1.127 0.322-1.715 0.246-0.58 0.641-1.156 1.221-1.732 0.568-0.572 1.337-1.079 2.336-1.526 0.548-0.261 1.128-0.491 1.684-0.652 0.547-0.173 1.066-0.319 1.525-0.42 0.471-0.105 0.875-0.193 1.193-0.258 0.331-0.068 0.549-0.133 0.698-0.185 0.133-0.061 0.217-0.145 0.265-0.27 0.049-0.113 0.077-0.212 0.121-0.297l0.313-0.021zm94.676 5.4l4.35 2.526-0.16 0.293c-0.21-0.093-0.38-0.152-0.53-0.172-0.14-0.029-0.27 0.043-0.38 0.22l-2 3.207 4.99 3.125 1.97-3.193c0.11-0.177 0.12-0.34 0.02-0.461-0.08-0.129-0.21-0.244-0.37-0.381l0.19-0.302 4.15 2.882-0.18 0.303c-0.21-0.101-0.38-0.161-0.51-0.182-0.16-0.028-0.29 0.049-0.4 0.239l-5.95 9.476c-0.1 0.186-0.12 0.346-0.03 0.467 0.08 0.129 0.2 0.254 0.38 0.379l-0.18 0.295-4.13-2.881 0.19-0.293c0.18 0.097 0.35 0.161 0.5 0.186 0.14 0.024 0.29-0.054 0.41-0.235l2.34-3.758-4.96-3.125-2.36 3.754c-0.1 0.182-0.11 0.335-0.04 0.455 0.09 0.121 0.22 0.25 0.39 0.383l-0.19 0.293-4.36-2.484 0.19-0.307c0.2 0.097 0.37 0.161 0.52 0.19 0.15 0.024 0.27-0.049 0.39-0.235l5.91-9.529c0.11-0.177 0.12-0.33 0.04-0.455-0.09-0.125-0.23-0.252-0.4-0.377l0.2-0.303zm-111.78 3.404c0.264-0.023 0.527-0.019 0.785 0.012 1.032 0.129 1.937 0.746 2.678 1.869 0.584 0.87 0.83 1.716 0.705 2.534-0.121 0.813-0.431 1.619-0.955 2.388l4.459 2.037c0.177 0.085 0.359 0.126 0.572 0.133 0.182 0 0.363-0.055 0.528-0.16l0.217 0.285-4.711 2.945-0.219-0.283c0.129-0.072 0.226-0.172 0.303-0.293 0.112-0.129 0.112-0.25 0.023-0.371-0.056-0.088-0.27-0.237-0.637-0.463-0.386-0.213-3.237-1.773-3.33-1.849l-2.138 1.443 2.248 3.307c0.125 0.173 0.245 0.253 0.394 0.216 0.133-0.016 0.294-0.077 0.463-0.166l0.197 0.284-3.697 2.689-0.189-0.289c0.068-0.068 0.148-0.166 0.213-0.291 0.068-0.125 0.052-0.266-0.073-0.451l-6.25-9.254c-0.129-0.181-0.242-0.262-0.383-0.238-0.116 0.016-0.246 0.064-0.378 0.133l-0.19-0.291 6.936-4.924c0.827-0.559 1.638-0.88 2.429-0.952zm-0.476 3.139c-0.35 0.029-0.77 0.213-1.272 0.551l-2.957 2.018 1.76 2.617 3.125-2.121c0.471-0.319 0.762-0.682 0.887-1.077 0.121-0.406 0.044-0.826-0.254-1.269-0.25-0.375-0.576-0.591-0.963-0.695-0.101-0.025-0.21-0.034-0.326-0.024zm58.876 0.256c50.66 0 91.73 41.143 91.73 91.893 0 50.74-41.07 91.88-91.73 91.88-50.655 0-91.724-41.14-91.724-91.88 0-50.75 41.069-91.893 91.724-91.893zm-7.35 4.664s-0.84 0.057-1.5 0.113c-0.69 0.053-3.03 0.358-3.03 0.358-5.92 4.406-11.33 12.108-15.797 22.72-1.47 3.496-2.808 7.241-4.008 11.18h-25.224c8.852-14.999 21.339-26.408 35.819-32.127l-0.63 0.117c-0.83 0.226-3.2 0.893-3.2 0.893-3.191 0.826-8.105 2.873-8.105 2.873-10.427 6.674-19.421 16.384-26.179 28.205-0.013 0.013-0.014 0.027-0.022 0.039h-10.486l-1.512 2.028h10.879c-7.693 14.257-12.292 31.39-12.453 49.82h-14.625v2.03h14.617c0.133 18.42 4.685 35.55 12.365 49.82h-10.726s1.409 1.93 1.502 2.03h10.328c6.589 11.56 15.292 21.12 25.365 27.8 0 0 3.676 1.51 5.223 2.01 0 0 3.086 1.1 4.879 1.54 0.68 0.16 1.35 0.36 1.35 0.36-13.928-5.91-25.928-17.12-34.495-31.71h25.27c1.216 4.02 2.578 7.82 4.068 11.37 4.377 10.36 9.617 17.95 15.397 22.41 0 0 1.82 0.24 3.26 0.4l1.18 0.12c-8.87-4.7-16.6-17.18-21.814-34.3h23.094l-4.57-2.03h-19.125c-0.894-3.05-1.696-6.24-2.404-9.56l-2.268-1c0.757 3.66 1.631 7.17 2.598 10.56h-25.825c-7.829-14.18-12.481-31.32-12.638-49.82h15.941l-0.762-2.03h-15.164c0.165-18.5 4.851-35.655 12.737-49.82h25.759c-1.164 4.092-2.19 8.365-3.064 12.832 0 0 0.704 0.168 1.127 0.345l0.789 0.33c0.902-4.744 1.986-9.258 3.219-13.507h11.49c0.42-0.786 1.18-2.028 1.18-2.028h-12.067c5.327-17.343 13.197-29.888 22.257-34.371zm14.9 0c9.06 4.483 16.93 17.024 22.26 34.371h-3.75s0.3 0.811 0.48 2.028h3.87c1.23 4.229 2.31 8.723 3.23 13.443 0 0 0.96-0.395 1.5-0.565l0.41-0.14c-0.88-4.431-1.9-8.675-3.07-12.738h25.79c7.85 14.165 12.54 31.32 12.73 49.82h-15.26l-0.76 2.03h16.02c-0.15 18.5-4.82 35.64-12.64 49.82h-25.83c0.98-3.41 1.85-6.93 2.61-10.61l-2.25 1.01c-0.73 3.33-1.55 6.54-2.42 9.6h-19.23l-4.55 2.03h23.18c-5.21 17.07-12.91 29.51-21.75 34.26 0 0 2.17-0.25 2.79-0.31 0.61-0.05 1.64-0.22 1.64-0.22 5.74-4.46 10.96-12.03 15.31-22.36 1.51-3.56 2.86-7.36 4.08-11.37h25.27c-8.46 14.41-20.25 25.53-33.96 31.49 0 0 3.77-1.05 6.1-1.91 0 0 3.68-1.38 4.57-1.82l0.77-0.29c9.86-6.69 18.37-16.11 24.84-27.47h10c0.35-0.42 1.51-2.03 1.51-2.03h-10.39c7.68-14.27 12.22-31.4 12.38-49.82h14.26l-0.02-2.03h-14.25c-0.19-18.43-4.74-35.563-12.46-49.82h10.53l-1.51-2.028h-10.15c-6.66-11.623-15.45-21.221-25.64-27.879 0 0-0.68-0.26-1.06-0.441-0.42-0.21-3.27-1.266-3.27-1.266-2.78-1.023-7.73-2.359-7.73-2.359 14.29 5.763 26.61 17.091 35.37 31.945h-25.21c-1.21-3.939-2.54-7.684-4.03-11.18-4.44-10.56-9.79-18.228-15.69-22.646 0 0-0.94-0.146-1.55-0.23-0.6-0.073-3.07-0.315-3.07-0.315zm-80.075 0.766l2.67 2.875-0.234 0.222c-0.185-0.217-0.373-0.33-0.498-0.314-0.133 0-0.247 0.048-0.34 0.125l-5.647 5.297 1.62 1.742 3.632-3.414c0.093-0.069 0.135-0.17 0.155-0.311 0.024-0.141-0.061-0.302-0.246-0.507l0.224-0.217 2.59 2.779-0.244 0.213c-0.169-0.201-0.324-0.285-0.465-0.281-0.149 0.004-0.241 0.042-0.33 0.115l-3.641 3.408 1.95 2.106 5.513-5.147c0.262-0.242 0.264-0.567 0.014-0.99l0.225-0.223 2.556 2.74-0.205 0.18c-0.237-0.141-0.423-0.185-0.519-0.148-0.101 0.036-0.214 0.128-0.383 0.273l-8.551 8.205-0.221-0.25c0.137-0.145 0.221-0.294 0.282-0.443 0.08-0.145 0.037-0.286-0.088-0.451l-7.573-8.147c-0.141-0.152-0.286-0.203-0.447-0.146-0.149 0.06-0.289 0.154-0.467 0.275l-0.238-0.258 8.752-8.289c0.085-0.068 0.134-0.174 0.162-0.302 0.04-0.129-0.065-0.294-0.242-0.483l0.234-0.234zm145.54 1.381l4.06 3.705-0.22 0.261c-0.2-0.137-0.34-0.144-0.45-0.011-0.03 0.044-0.14 0.302-0.33 0.773-0.16 0.455-3.66 11.055-3.84 11.57-0.05 0.097-0.05 0.198 0 0.303 0.05 0.113 0.12 0.201 0.2 0.266l-0.23 0.254-3.19-3.209 0.23-0.262c0.04 0.024 0.11 0.063 0.17 0.107 0.08 0.045 0.16 0.017 0.26-0.084 0.04-0.056 0.12-0.168 0.18-0.337 0.06-0.162 0.53-1.607 0.59-1.752l-4.6-4.106c-0.11 0.085-1.41 0.705-1.57 0.781-0.16 0.073-0.28 0.147-0.32 0.207-0.09 0.101-0.11 0.19-0.05 0.262 0.04 0.064 0.09 0.12 0.14 0.164l-0.24 0.254-3.14-2.574 0.23-0.262c0.09 0.073 0.18 0.122 0.29 0.154 0.12 0.037 0.21 0.023 0.31-0.025 1.29-0.656 9.53-4.759 10.24-5.109 0.68-0.335 1.05-0.541 1.1-0.621 0.12-0.125 0.1-0.283-0.05-0.448l0.23-0.261zm-0.12 4.115l-5.01 2.373 3.29 2.932 1.72-5.305zm9.8 5.316l3.01 3.461-0.27 0.209c-0.1-0.129-0.23-0.233-0.37-0.322-0.15-0.077-0.31-0.065-0.47 0.068-0.07 0.045-4.51 5.964-4.63 6.121l0.02 0.034c0.19-0.097 6.4-2.188 6.74-2.317 0.35-0.129 0.55-0.224 0.65-0.301 0.17-0.137 0.23-0.274 0.19-0.451-0.05-0.157-0.11-0.319-0.21-0.435l0.26-0.223 3.25 4.254-0.27 0.217c-0.1-0.141-0.23-0.262-0.39-0.338-0.14-0.085-0.29-0.057-0.47 0.072-0.04 0.032-0.18 0.202-0.38 0.504-0.21 0.306-3.95 5.876-4.04 5.984l0.04 0.053c0.19-0.101 6.91-2.783 7.02-2.855 0.16-0.133 0.22-0.287 0.19-0.444-0.05-0.177-0.12-0.325-0.24-0.47l0.28-0.217 2.38 3.621-0.29 0.217c-0.19-0.178-0.34-0.251-0.51-0.227-0.15 0.032-0.32 0.086-0.55 0.158-0.17 0.069-10.25 3.939-10.31 3.971-0.18 0.141-0.3 0.475-0.04 0.906l-0.28 0.213-3.2-4.586 0.28-0.219c0.34 0.379 0.62 0.5 0.78 0.391 0.07-0.056 0.23-0.245 0.44-0.547 0.21-0.294 3.17-4.652 3.41-4.986 0.23-0.334 0.4-0.569 0.5-0.69l-0.03-0.039c-0.15 0.061-0.41 0.17-0.78 0.311-0.41 0.141-5.36 1.84-5.7 1.961-0.33 0.129-0.55 0.228-0.62 0.289-0.1 0.06-0.12 0.17-0.08 0.307 0.04 0.128 0.1 0.293 0.21 0.47l-0.28 0.205-3.56-4.232 0.29-0.205c0.33 0.338 0.7 0.345 0.86 0.224 0.07-0.044 6.77-9.255 6.84-9.339 0.11-0.121 0.15-0.226 0.14-0.319-0.01-0.096-0.04-0.167-0.09-0.244l0.28-0.215zm-166.74 1.33l0.283 0.227c-0.077 0.121-0.133 0.225-0.133 0.342-0.028 0.125 0.067 0.285 0.111 0.345 0.133 0.17 5.45 8.881 5.752 9.34 0.282 0.463 0.511 0.737 0.547 0.77 0.129 0.096 0.263 0.122 0.404 0.082 0.153-0.053 0.266-0.122 0.331-0.227l0.265 0.201-3.447 4.422-0.283-0.217c0.092-0.088 0.141-0.208 0.154-0.357 0.008-0.145-0.049-0.27-0.174-0.375-0.016-0.008-0.362-0.162-0.93-0.371-0.535-0.222-8.828-3.287-9.392-3.492-0.584-0.202-0.904-0.267-0.992-0.254-0.141 0.024-0.212 0.077-0.252 0.113-0.057 0.048-0.103 0.106-0.143 0.162l-0.281-0.222 2.92-4.024 0.273 0.213c-0.06 0.081-0.14 0.195-0.228 0.344-0.093 0.149-0.076 0.261 0.049 0.357 0.036 0.028 0.216 0.11 0.554 0.238 0.331 0.137 6.674 2.428 6.807 2.485l0.029-0.039c-0.358-0.568-3.315-5.463-3.625-5.971-0.31-0.507-0.48-0.784-0.541-0.824-0.121-0.085-0.249-0.085-0.353 0.023-0.121 0.109-0.198 0.201-0.239 0.278l-0.289-0.217 2.823-3.352zm104.35 3.871c-10.28 2.445-12.29 8.639-15.31 9.235-2.4 0.475-1.74-5.324-1.74-5.324s-14.56 7.446-19.61 19.199c-4.32 10.161-0.35 15.816-0.35 15.816l5.34 0.004c-0.52-16.94 11.32-23.416 19.27-27.766 1.77-0.97 3.46-1.881 4.74-2.767l2.78-1.942-0.54 3.348c-0.01 0.04-0.66 4.145 0.17 8.02 0.25 1.144 0.65 2.146 1.03 3.113 0.93 2.368 1.9 4.816 0.8 8.912-0.95 3.472-3.84 6.911-5.99 9.09h3.86s4.02-1.651 7.19-8.764c3.17-9.122 0.02-12.856-1.97-18.933-1.96-4.721 0.33-11.241 0.33-11.241zm-114.58 9.698l0.293 0.181c-0.109 0.23-0.192 0.435-0.221 0.588-0.024 0.157 0.056 0.301 0.229 0.414l9.555 5.801c0.193 0.105 0.338 0.112 0.466 0.012 0.125-0.097 0.267-0.249 0.428-0.475l0.289 0.186-2.738 4.498-0.311-0.174c0.129-0.242 0.199-0.451 0.227-0.604 0.028-0.157-0.049-0.293-0.227-0.398l-9.552-5.813c-0.198-0.104-0.347-0.112-0.463-0.015-0.137 0.101-0.279 0.253-0.412 0.467l-0.315-0.172 2.752-4.496zm106.05 2.611c-0.79 0.451-1.65 0.921-2.5 1.389-7.58 4.14-17.78 9.707-17.78 24.162 0 0.354 0.02 0.71 0.03 1.072l15.16 0.008c0.75-0.641 6.22-5.413 7.41-9.852 0.3-1.035 0.41-1.902 0.41-2.691 0-1.647-0.51-2.924-1.1-4.406-0.41-1.08-0.85-2.194-1.15-3.551-0.38-1.768-0.49-3.549-0.49-5.051 0-0.383 0-0.742 0.01-1.08zm86.78 4.889l2.5 4.902-0.29 0.156c-0.14-0.185-0.28-0.25-0.43-0.166-0.05 0.024-0.25 0.243-0.56 0.614-0.32 0.378-7.36 9.054-7.71 9.453-0.07 0.08-0.11 0.168-0.1 0.285 0.01 0.125 0.03 0.225 0.08 0.322l-0.31 0.156-1.83-4.138v-0.002l0.29-0.168c0.02 0.048 0.08 0.111 0.13 0.172 0.05 0.072 0.14 0.074 0.27 0.013 0.06-0.036 0.16-0.113 0.27-0.246 0.12-0.133 1.09-1.317 1.2-1.426l-2.86-5.476c-0.14 0.032-1.59 0.148-1.75 0.168-0.19 0.016-0.31 0.036-0.36 0.072-0.14 0.065-0.17 0.15-0.15 0.234 0.01 0.085 0.04 0.153 0.06 0.198l-0.31 0.164-2.01-3.535 0.31-0.157c0.04 0.093 0.12 0.176 0.21 0.252 0.1 0.068 0.19 0.09 0.29 0.082 1.45-0.157 10.62-1.064 11.4-1.14 0.76-0.077 1.16-0.142 1.26-0.186 0.15-0.08 0.17-0.226 0.09-0.447l0.31-0.156zm-197.98 1.386l0.301 0.137c-0.065 0.21-0.104 0.394-0.104 0.547s0.088 0.271 0.281 0.359l10.223 4.535c0.189 0.093 0.342 0.084 0.455-0.021 0.129-0.109 0.234-0.248 0.326-0.437l0.33 0.132-2.195 4.399-0.334-0.139c0.065-0.133 0.112-0.289 0.156-0.475 0.037-0.177-0.018-0.31-0.183-0.378-0.153-0.065-0.52-0.029-1.104 0.136-0.604 0.157-1.355 0.379-2.22 0.645-0.887 0.278-1.905 0.589-3.004 0.92-1.08 0.35-2.24 0.671-3.416 0.953l0.037 0.08 6.992 3.109c0.181 0.077 0.358 0.065 0.463-0.019 0.105-0.097 0.198-0.229 0.303-0.399l0.326 0.145-1.645 4.254-0.33-0.155c0.049-0.169 0.094-0.317 0.094-0.474 0-0.141-0.106-0.249-0.299-0.342l-10.215-4.547c-0.197-0.088-0.338-0.085-0.463 0.028-0.104 0.104-0.204 0.242-0.3 0.419l-0.327-0.146 2.352-5.879 0.31 0.145c-0.028 0.12-0.037 0.249-0.037 0.394 0.008 0.145 0.122 0.359 0.36 0.383 0.129 0.02 0.273-0.037 0.74-0.166 0.443-0.109 0.999-0.273 1.695-0.479 0.669-0.201 1.43-0.41 2.268-0.668 0.854-0.245 1.656-0.5 2.494-0.746l-5.316-2.367c-0.19-0.076-0.348-0.069-0.473 0.028-0.093 0.108-0.204 0.254-0.301 0.439l-0.326-0.137 2.086-4.213zm196.44 2.42l-5.55 0.43 2.04 3.92 3.51-4.35zm7.58 9.393l1.77 4.969-0.33 0.121c-0.09-0.238-0.19-0.424-0.31-0.553-0.11-0.129-0.27-0.153-0.47-0.076l-10.49 3.806c-0.21 0.077-0.31 0.203-0.31 0.36 0 0.153 0.02 0.369 0.1 0.623l-0.33 0.121-1.76-4.971 0.34-0.125c0.09 0.246 0.21 0.428 0.32 0.561 0.11 0.117 0.26 0.145 0.45 0.068l10.51-3.81c0.19-0.065 0.29-0.181 0.3-0.346 0-0.165-0.04-0.367-0.11-0.637l0.32-0.111zm-140.09 5.744l3.453 9.149c5.385 3.49 14.506 11.32 19.316 16.29-11.64-20.329-20.381-24.795-22.769-25.439zm71.149 0c-2.38 0.644-11.12 5.11-22.78 25.439 4.82-4.97 13.95-12.8 19.36-16.29l3.42-9.149zm-142.67 0.91l0.33 0.084c-0.02 0.21-0.035 0.398-0.019 0.547 0.028 0.173 0.144 0.276 0.334 0.332l6.068 1.498c0.781 0.185 1.452 0.467 2.092 0.838 0.6 0.367 1.107 0.854 1.514 1.438 0.354 0.588 0.609 1.304 0.685 2.15 0.085 0.846-0.009 1.822-0.275 2.962-0.282 1.14-0.636 2.06-1.108 2.77-0.471 0.71-1.006 1.23-1.631 1.57-0.608 0.35-1.275 0.55-1.984 0.58-0.725 0.04-1.475-0.02-2.228-0.21l-6.075-1.49c-0.205-0.04-0.358-0.01-0.443 0.13-0.101 0.13-0.168 0.29-0.248 0.49l-0.332-0.08 0.91-4.69 0.359 0.08c-0.008 0.09 0.001 0.2 0.041 0.3 0.037 0.13 0.164 0.22 0.373 0.26l6.917 1.7c0.716 0.18 1.289 0.07 1.724-0.34 0.423-0.38 0.717-0.98 0.902-1.76 0.19-0.77 0.19-1.431-0.007-1.983-0.198-0.556-0.657-0.914-1.354-1.1l-6.912-1.683c-0.213-0.048-0.355-0.024-0.443 0.064-0.081 0.089-0.14 0.166-0.184 0.246l-0.322-0.08 1.316-4.623zm212.99 2.063c0.29-0.02 0.58-0.007 0.85 0.035 0.57 0.096 1.08 0.257 1.57 0.523 0.47 0.246 0.92 0.58 1.32 0.979 0.41 0.39 0.75 0.805 1.07 1.232l-0.85 0.225c-0.33-0.423-0.75-0.797-1.25-1.112-0.49-0.314-1.06-0.439-1.68-0.378 0.17 0.62 0.15 1.184-0.04 1.728-0.2 0.528-0.66 0.894-1.4 1.1-0.6 0.169-1.14 0.112-1.59-0.182-0.47-0.298-0.77-0.709-0.92-1.232-0.19-0.689-0.09-1.277 0.34-1.748 0.42-0.476 0.98-0.803 1.67-1.012 0.31-0.087 0.61-0.138 0.91-0.158zm-124.38 2.041c-0.83 0-1.51 0.689-1.51 1.531 0 0.838 0.68 1.529 1.51 1.529h36.95c0.86 0 1.53-0.691 1.53-1.529 0-0.842-0.67-1.531-1.53-1.531h-36.95zm-30.29 0.238l4.494 11.827 32.796 14.08c-19.006-18.98-31.382-24.82-37.29-25.907zm97.54 0c-5.89 1.087-18.27 6.927-37.28 25.907l32.8-14.08 4.48-11.827zm60.31 3.977l1.06 5.16-0.35 0.06c-0.07-0.24-0.15-0.44-0.24-0.57-0.09-0.14-0.24-0.19-0.45-0.13l-10.92 2.29c-0.22 0.04-0.34 0.15-0.36 0.31-0.04 0.16-0.03 0.38 0.01 0.64l-0.34 0.07-1.06-5.17 0.35-0.07c0.07 0.25 0.16 0.45 0.22 0.59 0.09 0.14 0.24 0.18 0.45 0.14l10.94-2.32c0.22-0.04 0.33-0.14 0.37-0.3 0.01-0.16 0.01-0.36-0.04-0.63l0.36-0.07zm-125.65 1.09c1.72 4.07 7.41 9.51 16.57 9.51 9.19 0 14.62-5.44 16.7-9.51h-33.27zm-42.206 4.73c1.538 4.07 20.232 53.46 20.506 54.21l32.48 14.42 0.74-12.71c0-0.11 0.1-0.22 0.21-0.22 0.13 0 0.24 0.11 0.24 0.22l1.21 13.78h0.01l1.15 13.15c0.06 1.19 1.04 2.13 2.23 2.13 1.22 0 2.17-0.93 2.23-2.12l1.18-13.16 1.2-13.78c0-0.11 0.1-0.22 0.23-0.22 0.12 0 0.23 0.11 0.23 0.22l0.74 12.71 32.49-14.42c0.28-0.75 18.95-50.14 20.48-54.21l-51.13 21.26 1.42-16.13c-2.07 0.93-4.49 1.58-7.22 1.78l-1.45 26.65c0 0.2-0.19 0.35-0.39 0.35-0.21 0-0.38-0.15-0.39-0.35l-1.45-26.65c-2.73-0.2-5.13-0.83-7.22-1.75l1.41 16.1-51.136-21.26zm101.37 24.65c0.25 1.95 0.63 7.16 0.77 8.07l-1.93 1.9c0-0.54-0.06-2.21-0.1-2.39l-3.14 1.45c-0.18 0.34-1.24 2.26-1.66 2.93l-0.99-0.62c0.69-1.18 5.83-9.53 6.98-11.31l0.07-0.03zm-85.577 0.12l0.06 0.02c0.665 1.06 3.585 5.96 4.225 6.94 0.056-0.62 0.283-4.09 0.359-5.11l0.073 0.02c0.733 1.35 5.264 10.24 5.638 10.9h-0.002l-1.168 0.23c-0.346-0.69-2.83-5.84-3.224-6.57h-0.008c0 0.51-0.146 2.99-0.287 4.36l-0.057-0.03c-0.967-1.5-3.491-5.55-3.838-6.11 0 0.33 0.352 4.52 0.424 5.54l-1.781-1.58c-0.024-0.97-0.386-7.07-0.414-8.61zm10.258 2.35l4.164 1.74 0.439 1.8-4.205-1.76-0.398-1.78zm67.249 1.16c0.07 1.47 0.15 7.43 0.18 8.36l-1.7 1.56c0-0.98 0.06-5.06 0.05-5.38-0.33 0.53-2.63 4.51-3.55 5.98l-0.04 0.02c-0.24-1.31-0.56-3.73-0.58-4.23h-0.02c-0.35 0.72-2.55 5.76-2.86 6.43l-1.2-0.21c0.3-0.65 4.39-9.5 5.03-10.82l0.08-0.03c0.15 1 0.61 4.52 0.69 5.13 0.57-0.95 3.26-5.78 3.86-6.79l0.06-0.02zm6.79 0.02c-0.37 0.61-1.69 2.9-2.06 3.52l2.1-0.97c0-0.53-0.04-2.18-0.04-2.55zm-71.498 2.42l0.068 0.03c0.971 1.55 5.24 8.83 5.87 9.84l-1.153 0.57c-0.331-0.62-1.197-2.28-1.35-2.57l-3.099-1.25c-0.041 0.15-0.312 1.6-0.409 2.08l-1.744-1.67c0.258-0.77 1.309-5.33 1.817-7.03zm5.488 1.69l1.95 0.82c0.04 0.3 0.49 2.94 0.8 4.61l0.59 3.11c0.27 0.11 0.91 0.44 1.82 0.79l0.37 1.91c-0.23-0.1-3.14-1.52-3.77-1.78-0.07-0.67-0.63-3.66-0.7-3.97l-0.33-1.76c-0.02-0.2-0.67-3.46-0.73-3.73zm46.43 0.73c0.63 1.78 2 6.59 2.33 7.41l-1.69 1.82c-0.14-0.51-0.5-2.04-0.57-2.21l-3.12 1.43c-0.13 0.31-0.95 2.12-1.28 2.76l-1.19-0.57c0.56-1.07 4.54-8.96 5.46-10.62l0.06-0.02zm-51.047 0.75c-0.057 0.33-0.303 1.78-0.379 2.22l2.09 0.88c-0.311-0.56-1.409-2.53-1.711-3.1zm-70.075 1.59l0.573 3.23-0.27 0.06c-0.036-0.06-0.068-0.13-0.125-0.19-0.056-0.06-0.165-0.07-0.318-0.04l-5.373 1.14c-0.568 0.12-0.952 0.35-1.121 0.74-0.19 0.36-0.216 0.84-0.112 1.36 0.121 0.53 0.346 0.94 0.664 1.21 0.302 0.27 0.738 0.35 1.293 0.23l5.389-1.13c0.169-0.04 0.251-0.09 0.287-0.18 0.036-0.08 0.047-0.13 0.055-0.21l0.262-0.05 0.781 3.17-0.281 0.05c-0.037-0.13-0.084-0.25-0.149-0.34-0.068-0.1-0.173-0.12-0.338-0.09l-4.974 1.06c-0.609 0.12-1.173 0.16-1.721 0.13s-1.07-0.16-1.525-0.4c-0.46-0.23-0.854-0.59-1.176-1.08-0.318-0.49-0.557-1.13-0.742-1.91-0.141-0.79-0.177-1.46-0.077-2.04 0.121-0.58 0.311-1.08 0.633-1.46 0.326-0.4 0.733-0.74 1.233-1 0.487-0.23 1.026-0.42 1.627-0.56l4.957-1.07c0.169-0.02 0.274-0.09 0.287-0.2 0.028-0.1 0.028-0.24 0.015-0.38l0.246-0.05zm83.372 0.17l0.07 0.02c0.87 1.72 4.68 9.73 5.22 10.85l-1.17 0.55c-0.31-0.67-1.08-2.51-1.21-2.81l-3.08-1.48c-0.07 0.15-0.43 1.7-0.58 2.21l-1.65-1.85c0.32-0.84 1.76-5.68 2.4-7.49zm118.95 0.36c0.39 0 0.81 0.04 1.24 0.13 0.87 0.18 1.62 0.46 2.17 0.89 0.59 0.41 1.03 0.88 1.32 1.41 0.3 0.54 0.5 1.1 0.57 1.7s0.02 1.18-0.07 1.72c-0.12 0.56-0.31 1.1-0.6 1.63s-0.68 0.98-1.17 1.35c-0.49 0.38-1.09 0.64-1.78 0.81-0.66 0.16-1.47 0.15-2.35-0.03-0.87-0.18-1.58-0.48-2.16-0.88-0.58-0.41-1.02-0.89-1.34-1.42-0.33-0.56-0.52-1.11-0.61-1.71-0.06-0.61-0.05-1.18 0.05-1.74 0.13-0.56 0.32-1.09 0.65-1.62 0.28-0.52 0.69-0.96 1.18-1.34 0.51-0.38 1.07-0.64 1.78-0.8 0.36-0.07 0.73-0.11 1.12-0.1zm-81.89 0.51c-0.29 0.6-1.3 2.73-1.57 3.33l2.11-0.95c-0.1-0.49-0.47-2.02-0.54-2.38zm-6.69 0.18c-0.05 0.31-0.49 3.03-0.73 4.69l-0.43 3c0.23-0.1 1.36-0.54 2.18-0.93l-0.28 1.92c-0.2 0.09-3.25 1.19-3.81 1.41 0.14-0.72 0.57-3.56 0.62-3.89l0.25-1.77c0.02-0.22 0.49-3.5 0.5-3.74l1.7-0.69zm-8.32 1.35h0.08c1.12 2.22 3.59 7.65 4.15 8.67l-1.59 1.23c-0.27-0.6-0.82-2.08-0.92-2.28l-3.39 0.2c-0.1 0.27-0.66 1.87-0.89 2.42l-1.53-1.12c0.42-0.92 3.4-7.69 4.09-9.12zm-13.47 0.26h0.09c0.51 1.13 2.26 4.9 2.56 5.59 0.4-0.78 2.18-4.59 2.58-5.43h0.09c0.58 1.61 2.63 7.82 2.95 8.84l-1.63 0.9c-0.31-1.04-1.56-5.32-1.69-5.67-0.22 0.43-1.8 3.65-2.44 4.81h-0.06c-0.74-1.49-1.92-4.19-2.14-4.73h-0.02c-0.17 0.63-1.26 4.67-1.43 5.25l-1.45-1.01c0.17-0.55 2.22-7.42 2.59-8.55zm110.55 0.07c-0.19-0.01-0.38 0-0.54 0.03-0.36 0.07-0.68 0.17-0.96 0.36-0.27 0.18-0.51 0.4-0.68 0.67-0.18 0.26-0.29 0.56-0.37 0.9s-0.08 0.65 0 0.98c0.08 0.31 0.19 0.61 0.37 0.89 0.17 0.26 0.43 0.5 0.72 0.68 0.31 0.2 0.67 0.33 1.09 0.42 0.4 0.07 0.79 0.09 1.14 0.03 0.35-0.05 0.67-0.18 0.93-0.35 0.28-0.18 0.51-0.39 0.69-0.68 0.2-0.26 0.33-0.57 0.39-0.89 0.06-0.35 0.06-0.67 0-0.99s-0.19-0.6-0.39-0.87c-0.18-0.28-0.42-0.52-0.72-0.69-0.3-0.2-0.65-0.35-1.07-0.41-0.21-0.05-0.41-0.07-0.6-0.08zm-118.5 0.71c-0.06 0.35-0.44 1.91-0.55 2.39l2.06 1c-0.27-0.6-1.22-2.78-1.51-3.39zm21.42 2.33c-0.21 0.51-0.92 2.39-1.12 2.92l2.28-0.14c-0.23-0.56-1.02-2.38-1.16-2.78zm90.98 4.02l0.26 0.09c-0.03 0.13-0.03 0.26-0.02 0.36s0.1 0.18 0.26 0.23l8.17 2.63c0.16 0.06 0.26 0.04 0.32-0.04 0.07-0.06 0.15-0.18 0.2-0.31l0.27 0.07-0.96 3.22-0.25-0.06c0.04-0.09 0.07-0.21 0.07-0.33 0.01-0.15-0.05-0.23-0.17-0.27-0.13-0.04-0.43 0.01-0.85 0.15-0.42 0.13-0.99 0.33-1.61 0.54-0.67 0.24-3.79 1.34-4.65 1.58l0.02 0.05 5.62 1.82c0.16 0.05 0.28 0.05 0.34-0.03 0.08-0.06 0.14-0.16 0.19-0.3l0.26 0.1-1.03 2.91-0.25-0.09c0.01-0.12 0.01-0.23 0-0.33-0.02-0.09-0.1-0.18-0.27-0.23l-8.17-2.63c-0.15-0.04-0.27-0.04-0.34 0.03-0.06 0.08-0.12 0.18-0.18 0.31l-0.27-0.08 1.45-4.07 0.25 0.07c-0.01 0.1 0 0.19 0.01 0.29 0.02 0.08 0.08 0.18 0.27 0.2 0.04 0.01 0.19-0.02 0.51-0.13 0.34-0.11 4.1-1.4 4.7-1.61l-4.22-1.37c-0.14-0.05-0.27-0.05-0.35 0.04-0.08 0.07-0.14 0.18-0.2 0.32l-0.25-0.1 0.87-3.03zm-203.5 2.83c0.012 0.07 0.064 0.13 0.121 0.19 0.048 0.06 0.117 0.09 0.189 0.09 1.128 0.02 7.793 0.21 8.377 0.23 0.576 0.01 0.924 0 0.996-0.02 0.118-0.04 0.16-0.13 0.123-0.3l0.246-0.06 1.165 3.58-0.262 0.08c-0.065-0.14-0.157-0.19-0.281-0.15-0.045 0.01-0.21 0.14-0.508 0.37-0.29 0.22-6.534 5.24-6.852 5.5-0.068 0.04-0.097 0.11-0.125 0.17-0.016 0.09-0.015 0.16 0.029 0.23l-0.273 0.09-0.988-2.8 0.246-0.07c0.008 0.02 0.028 0.07 0.064 0.11 0.037 0.06 0.097 0.08 0.205 0.04 0.061-0.03 0.138-0.07 0.25-0.15 0.093-0.08 0.931-0.75 1.024-0.8l-1.297-4.01c-0.141 0-1.152-0.03-1.301-0.04-0.121-0.01-0.217 0-0.281 0.01-0.093 0.04-0.15 0.08-0.15 0.14 0 0.07 0.024 0.11 0.044 0.14l-0.273 0.1-0.75-2.59 0.262-0.08zm4.16 2.37l0.939 2.86 3.299-2.68-4.238-0.18zm198.39 6.42c0.74 0 1.48 0.18 2.29 0.53 0.83 0.36 1.48 0.8 1.96 1.32 0.47 0.51 0.78 1.07 0.98 1.66s0.25 1.19 0.2 1.78c-0.07 0.6-0.22 1.17-0.46 1.67-0.21 0.52-0.51 1-0.9 1.47-0.4 0.44-0.88 0.81-1.43 1.06-0.56 0.26-1.19 0.41-1.87 0.42-0.74 0.01-1.49-0.18-2.32-0.54-0.81-0.34-1.45-0.78-1.95-1.31-0.47-0.52-0.8-1.08-1.01-1.67-0.19-0.58-0.26-1.17-0.21-1.79 0.05-0.6 0.19-1.16 0.41-1.69 0.23-0.52 0.54-1.01 0.95-1.45 0.42-0.44 0.88-0.79 1.45-1.06 0.56-0.26 1.22-0.39 1.91-0.4zm0.25 2.4c-0.35-0.01-0.69 0.04-0.98 0.15-0.3 0.12-0.6 0.29-0.84 0.51-0.21 0.22-0.41 0.49-0.56 0.81-0.12 0.31-0.18 0.63-0.18 0.95 0 0.34 0.05 0.64 0.17 0.96 0.13 0.31 0.32 0.56 0.56 0.82 0.26 0.25 0.59 0.45 0.97 0.62 0.4 0.16 0.76 0.26 1.11 0.27 0.36 0.02 0.68-0.04 0.98-0.14 0.31-0.12 0.59-0.29 0.83-0.5 0.23-0.23 0.43-0.51 0.56-0.8 0.13-0.33 0.2-0.66 0.2-0.98s-0.05-0.62-0.19-0.93c-0.11-0.32-0.31-0.59-0.56-0.83s-0.58-0.46-0.96-0.63-0.75-0.26-1.11-0.28zm-188.09 1.31l1.701 3.58-0.235 0.13c-0.064-0.07-0.104-0.15-0.14-0.19-0.057-0.06-0.102-0.07-0.17-0.04-0.04 0.04-0.209 0.19-0.479 0.49-0.273 0.28-2.182 2.44-2.271 2.54 0.387-0.04 3.221-0.24 3.523-0.28 0.319-0.03 0.497-0.06 0.557-0.11 0.072-0.03 0.099-0.1 0.092-0.15-0.028-0.07-0.04-0.14-0.092-0.23l0.25-0.13 1.961 3.5-0.238 0.12c-0.057-0.06-0.129-0.12-0.205-0.16-0.077-0.07-0.173-0.05-0.33 0.02l-7.645 3.94c-0.141 0.07-0.205 0.15-0.221 0.26 0 0.08 0.015 0.17 0.043 0.26l-0.224 0.12-1.471-2.63 0.238-0.13c0.077 0.11 0.156 0.2 0.233 0.25 0.092 0.06 0.201 0.06 0.33-0.01l5.797-3-0.016-0.03-7.025 0.6 4.595-5.32-0.019-0.03-5.797 2.97c-0.153 0.09-0.217 0.18-0.217 0.29s0.036 0.22 0.084 0.37l-0.244 0.12-1.193-2.58 0.242-0.13c0.06 0.07 0.124 0.14 0.201 0.21 0.093 0.06 0.213 0.06 0.346-0.02l7.625-3.94c0.141-0.06 0.216-0.15 0.216-0.25 0-0.12-0.002-0.2-0.039-0.3l0.237-0.11zm182.66 5.43c0.46 0.04 0.99 0.23 1.55 0.57s0.96 0.71 1.23 1.08c0.26 0.39 0.41 0.78 0.46 1.18 0.05 0.39 0 0.79-0.13 1.18-0.14 0.41-0.31 0.79-0.54 1.19l-1.05 1.76 2.39 1.44c0.16 0.08 0.28 0.1 0.35 0.04 0.09-0.04 0.16-0.12 0.24-0.2l0.22 0.16-1.61 2.66-0.23-0.14c0.01-0.04 0.02-0.09 0.02-0.19 0-0.08-0.07-0.18-0.24-0.26l-7.35-4.41c-0.15-0.09-0.27-0.11-0.35-0.07-0.07 0.06-0.13 0.09-0.16 0.12l-0.22-0.14 2.42-4.09c0.24-0.39 0.51-0.74 0.79-1.04 0.29-0.32 0.63-0.54 0.99-0.7 0.36-0.14 0.76-0.17 1.22-0.14zm-0.47 2.31c-0.07 0-0.15 0-0.22 0.02-0.26 0.06-0.53 0.28-0.77 0.68l-0.95 1.6 2.29 1.37 0.9-1.48c0.26-0.44 0.35-0.8 0.3-1.09-0.07-0.29-0.31-0.56-0.72-0.8-0.33-0.2-0.59-0.29-0.83-0.3zm-175.42 4.82l2.102 3.15-0.217 0.14c-0.101-0.13-0.205-0.14-0.322-0.07-0.028 0.02-0.166 0.18-0.383 0.49-0.234 0.3-4.887 6.83-5.141 7.15-0.048 0.05-0.067 0.13-0.047 0.21 0 0.08 0.037 0.16 0.057 0.22l-0.215 0.16-1.707-2.44 0.225-0.15c0.02 0.03 0.041 0.08 0.098 0.12 0.044 0.03 0.096 0.03 0.189-0.03 0.056-0.02 0.105-0.1 0.197-0.21 0.077-0.11 0.697-0.96 0.762-1.04l-2.336-3.5c-0.113 0.04-1.101 0.29-1.242 0.31-0.129 0.03-0.226 0.05-0.266 0.08-0.084 0.06-0.127 0.13-0.111 0.18 0.028 0.07 0.039 0.1 0.047 0.14l-0.19 0.14-1.437-2.27 0.219-0.16c0.048 0.06 0.099 0.11 0.175 0.16 0.069 0.04 0.15 0.04 0.227 0.02 1.071-0.28 7.54-1.9 8.103-2.05 0.548-0.15 0.878-0.25 0.934-0.28 0.113-0.08 0.129-0.19 0.057-0.33l0.222-0.14zm-0.939 2.8l-4.125 0.96 1.668 2.51 2.457-3.47zm5.072 3.17l2.002 2.58-0.217 0.18c-0.044-0.05-0.108-0.08-0.197-0.1-0.081-0.03-0.185 0.02-0.318 0.12l-4.262 3.52c-0.435 0.35-0.651 0.74-0.631 1.15 0.016 0.42 0.205 0.83 0.543 1.26 0.342 0.42 0.716 0.67 1.119 0.77 0.407 0.11 0.815-0.04 1.262-0.39l4.256-3.5c0.129-0.09 0.186-0.2 0.17-0.28-0.012-0.09-0.021-0.16-0.049-0.22l0.209-0.17 2.142 2.45-0.212 0.18c-0.105-0.11-0.197-0.19-0.286-0.23-0.108-0.05-0.222-0.03-0.363 0.07l-3.926 3.26c-0.463 0.37-0.943 0.67-1.451 0.91-0.507 0.22-1.022 0.33-1.533 0.33-0.516 0-1.027-0.15-1.551-0.41-0.527-0.29-1.028-0.73-1.515-1.35-0.512-0.63-0.858-1.2-1.036-1.77-0.181-0.57-0.208-1.09-0.111-1.59 0.101-0.51 0.31-0.99 0.645-1.44 0.306-0.46 0.708-0.87 1.168-1.25l3.945-3.24c0.129-0.12 0.17-0.22 0.15-0.34-0.028-0.09-0.093-0.21-0.162-0.34l0.209-0.16zm160.92 0.78l0.21 0.18c-0.08 0.12-0.06 0.23 0.04 0.32 0.03 0.02 0.26 0.11 0.6 0.24 0.38 0.11 7.94 2.5 8.35 2.64 0.07 0.03 0.13 0.03 0.21-0.01 0.07-0.03 0.14-0.08 0.18-0.14l0.23 0.17-1.76 2.39-0.24-0.17c0.02-0.03 0.06-0.06 0.08-0.1 0.04-0.07 0-0.12-0.09-0.21-0.04-0.02-0.13-0.07-0.25-0.12s-1.1-0.35-1.21-0.38l-2.6 3.29c0.08 0.1 0.62 0.97 0.7 1.08 0.06 0.13 0.13 0.19 0.16 0.24 0.09 0.06 0.16 0.07 0.2 0.03 0.06-0.03 0.09-0.06 0.12-0.1l0.2 0.16-1.73 2.08-0.21-0.18c0.04-0.05 0.08-0.12 0.09-0.2 0.02-0.09 0-0.17-0.05-0.23-0.6-0.93-4.13-6.57-4.45-7.07-0.31-0.48-0.5-0.78-0.55-0.83-0.1-0.08-0.23-0.05-0.33 0.05l-0.22-0.16 2.32-2.97zm0.65 3.03l2.19 3.6 1.86-2.38-4.05-1.22zm-5.16 2.5l0.21 0.19c-0.1 0.16-0.15 0.43-0.15 0.85 0.01 0.39 0.02 0.85 0.06 1.34 0.04 0.5 0.24 2.49 0.25 2.82l5.96 1.66c0.16 0.03 0.26 0.04 0.34 0.02 0.08-0.01 0.17-0.05 0.22-0.1l0.19 0.19-2.47 2.72-0.19-0.2c0.05-0.06 0.11-0.16 0.18-0.29 0.04-0.11 0.01-0.22-0.1-0.35-0.04-0.02-0.13-0.07-0.33-0.13-0.17-0.06-3.62-1.04-3.75-1.08l0.31 2.46 1.32 1.28c0.13 0.12 0.23 0.15 0.34 0.1 0.11-0.04 0.23-0.11 0.31-0.19l0.19 0.19-2.43 2.37-0.19-0.19c0.07-0.07 0.13-0.14 0.13-0.26 0.03-0.11 0-0.22-0.12-0.34l-6.16-5.97c-0.12-0.12-0.24-0.17-0.34-0.13-0.1 0.02-0.19 0.08-0.25 0.19l-0.19-0.21 2.39-2.36 0.2 0.18c-0.06 0.11-0.13 0.22-0.18 0.33-0.04 0.11 0 0.21 0.12 0.32l3 2.89c-0.03-0.26-0.25-4.01-0.27-4.35-0.04-0.33-0.07-0.59-0.1-0.79-0.05-0.22-0.08-0.34-0.11-0.38-0.13-0.09-0.24-0.13-0.34-0.09-0.1 0.05-0.19 0.09-0.26 0.15l-0.21-0.18 2.42-2.66zm-66.73 5.31v2.24h0.15c0-0.12 0.04-0.22 0.09-0.25 0.06-0.04 0.11-0.05 0.17-0.05h4.36l-2.99 5.02c-0.07 0.1-0.12 0.18-0.2 0.24-0.06 0.07-0.14 0.09-0.25 0.11v0.16h3v-0.16c-0.07-0.02-0.14-0.02-0.21-0.05s-0.11-0.08-0.11-0.19c0-0.05 0.03-0.13 0.09-0.24 0.08-0.1 0.13-0.19 0.19-0.3l2.61-4.78v-1.73h-0.17c0 0.12-0.03 0.2-0.09 0.25-0.05 0.05-0.1 0.06-0.16 0.06h-6.07c-0.06 0-0.11-0.01-0.17-0.06-0.05-0.05-0.09-0.13-0.09-0.27h-0.15zm-13.67 0.25c-0.35 0-0.72 0.03-1.12 0.12-0.36 0.09-0.7 0.24-1.02 0.42s-0.58 0.44-0.8 0.73c-0.18 0.32-0.29 0.68-0.29 1.11 0 0.37 0.07 0.71 0.2 0.99 0.16 0.29 0.35 0.56 0.58 0.76 0.28 0.22 0.55 0.37 0.86 0.48 0.32 0.11 0.67 0.17 1.01 0.17 0.46 0 0.87-0.06 1.26-0.18 0.38-0.12 0.83-0.31 1.29-0.53-0.03 0.33-0.12 0.61-0.25 0.83-0.13 0.24-0.33 0.44-0.55 0.59-0.21 0.17-0.45 0.27-0.71 0.37-0.27 0.07-0.55 0.11-0.83 0.11-0.21 0-0.43-0.02-0.64-0.05-0.22-0.01-0.39-0.06-0.56-0.12-0.17-0.05-0.29-0.12-0.39-0.21-0.11-0.08-0.15-0.18-0.15-0.3v-0.13l-0.15-0.06-1.07 1.83 0.17 0.06c0.09-0.1 0.19-0.15 0.31-0.15 0.03 0 0.1 0.02 0.22 0.07 0.13 0.05 0.3 0.1 0.53 0.15 0.22 0.06 0.47 0.1 0.76 0.13 0.3 0.05 0.62 0.07 0.97 0.07 0.54 0 1.07-0.08 1.57-0.24 0.52-0.15 0.96-0.4 1.33-0.71 0.39-0.31 0.7-0.72 0.91-1.19 0.23-0.46 0.34-0.99 0.34-1.59s-0.09-1.11-0.28-1.56c-0.17-0.44-0.43-0.79-0.77-1.09-0.31-0.3-0.71-0.52-1.16-0.66-0.48-0.14-0.99-0.22-1.57-0.22zm-7.84 0.08v0.17c0.06 0 0.13 0.01 0.18 0.04 0.07 0.03 0.09 0.1 0.09 0.2v0.43c-0.02 0.01-0.08 0.03-0.16 0.07-0.1 0.03-0.18 0.07-0.28 0.11-0.1 0.03-0.2 0.07-0.27 0.1-0.09 0.02-0.14 0.04-0.16 0.04-0.07 0-0.11-0.04-0.12-0.12-0.02-0.09-0.03-0.16-0.03-0.2h-0.17v2.18h0.17c0-0.08 0.02-0.16 0.04-0.22 0.02-0.05 0.06-0.1 0.13-0.14s0.17-0.07 0.33-0.1c0.12-0.05 0.29-0.08 0.52-0.15v4.32c0 0.1-0.03 0.16-0.09 0.19-0.07 0.03-0.14 0.04-0.24 0.06v0.15h2.71v-0.15c-0.09-0.02-0.15-0.03-0.23-0.06-0.06-0.03-0.09-0.09-0.09-0.19v-6.32c0-0.1 0.03-0.17 0.09-0.2 0.08-0.03 0.15-0.04 0.26-0.04v-0.17h-2.68zm16.74 0.15c-0.52 0-0.99 0.09-1.43 0.28-0.45 0.17-0.83 0.44-1.18 0.76-0.34 0.33-0.6 0.71-0.79 1.15-0.2 0.45-0.3 0.93-0.3 1.45 0 0.53 0.1 1.01 0.3 1.47 0.19 0.42 0.45 0.82 0.79 1.15 0.35 0.32 0.73 0.57 1.18 0.74 0.44 0.18 0.91 0.27 1.43 0.27 0.48 0 0.96-0.09 1.41-0.27 0.45-0.17 0.83-0.42 1.18-0.74 0.33-0.33 0.61-0.73 0.8-1.15 0.2-0.46 0.28-0.94 0.28-1.47 0-0.52-0.08-1-0.28-1.45-0.19-0.44-0.47-0.82-0.8-1.15-0.35-0.32-0.73-0.59-1.18-0.76-0.45-0.19-0.93-0.28-1.41-0.28zm-73.668 0.65l2.473 2.28-0.162 0.21c-0.113-0.07-0.233-0.12-0.338-0.15-0.105-0.04-0.217 0-0.326 0.13l-2.731 3.15c0.274-0.03 4.021-0.46 4.323-0.51 0.334-0.05 0.591-0.1 0.797-0.13 0.197-0.05 0.317-0.1 0.349-0.12 0.101-0.13 0.122-0.25 0.102-0.33-0.057-0.11-0.114-0.2-0.17-0.28l0.17-0.2 2.771 2.28-0.181 0.2c-0.162-0.09-0.435-0.12-0.858-0.09-0.395 0.02-0.839 0.06-1.334 0.13-0.483 0.06-2.457 0.39-2.787 0.41l-1.35 6.07c-0.052 0.13-0.051 0.24-0.031 0.31 0.032 0.08 0.055 0.17 0.111 0.22l-0.171 0.21-2.795-2.35 0.16-0.2c0.076 0.06 0.154 0.11 0.283 0.16 0.133 0.05 0.237 0.01 0.35-0.11 0.024-0.04 0.08-0.14 0.121-0.33 0.048-0.19 0.866-3.7 0.894-3.81l-2.437 0.4-1.205 1.41c-0.117 0.11-0.141 0.22-0.076 0.33 0.044 0.11 0.112 0.23 0.197 0.3l-0.19 0.2-2.504-2.29 0.172-0.21c0.073 0.09 0.163 0.14 0.276 0.17 0.121 0.01 0.233-0.05 0.334-0.18l5.65-6.46c0.113-0.13 0.158-0.25 0.113-0.36-0.036-0.11-0.097-0.19-0.181-0.24l0.181-0.22zm64.788 0.5c0.13 0 0.28 0.02 0.44 0.04 0.18 0.03 0.33 0.08 0.49 0.18 0.16 0.06 0.28 0.14 0.39 0.28 0.11 0.13 0.18 0.3 0.18 0.5 0 0.21-0.07 0.36-0.18 0.49-0.11 0.15-0.23 0.24-0.39 0.31s-0.31 0.12-0.49 0.15c-0.16 0.04-0.31 0.04-0.44 0.04-0.11 0-0.27 0-0.44-0.04-0.17-0.03-0.35-0.08-0.49-0.15-0.16-0.07-0.29-0.16-0.39-0.31-0.1-0.13-0.15-0.28-0.15-0.49 0-0.2 0.05-0.37 0.15-0.5 0.1-0.14 0.23-0.22 0.39-0.28 0.14-0.1 0.32-0.15 0.49-0.18 0.17-0.02 0.33-0.04 0.44-0.04zm8.88 0.44c0.29 0 0.53 0.06 0.75 0.19 0.21 0.11 0.38 0.27 0.53 0.46 0.13 0.2 0.23 0.41 0.31 0.65 0.05 0.25 0.08 0.51 0.08 0.75 0 0.26-0.03 0.51-0.08 0.75-0.08 0.24-0.18 0.46-0.31 0.66-0.15 0.19-0.32 0.35-0.53 0.47-0.22 0.12-0.46 0.17-0.75 0.17-0.31 0-0.57-0.05-0.78-0.17s-0.4-0.28-0.52-0.47c-0.15-0.2-0.24-0.42-0.3-0.66s-0.09-0.49-0.09-0.75c0-0.24 0.03-0.5 0.09-0.75 0.06-0.24 0.15-0.45 0.3-0.65 0.12-0.19 0.31-0.35 0.52-0.46 0.21-0.13 0.47-0.19 0.78-0.19zm59.04 4.63l0.16 0.21c-0.12 0.12-0.22 0.23-0.26 0.33-0.07 0.11-0.04 0.22 0.08 0.35l5.29 6.72c0.12 0.13 0.23 0.18 0.33 0.16 0.11-0.04 0.23-0.09 0.4-0.19l0.15 0.21-2.81 2.2-0.18-0.22c0.13-0.12 0.23-0.24 0.28-0.34s0.04-0.2-0.07-0.33l-5.3-6.73c-0.11-0.13-0.21-0.19-0.33-0.17-0.1 0.04-0.21 0.11-0.38 0.2l-0.16-0.21 2.8-2.19zm-124.73 1.33l6.654 4.78c0.061 0.04 0.132 0.07 0.225 0.05 0.096-0.01 0.202-0.09 0.314-0.25l0.186 0.12-1.748 2.46-0.19-0.13c0.125-0.17 0.198-0.31 0.182-0.42-0.012-0.09-0.069-0.15-0.117-0.2l-4.297-3.07-1.057 1.47 2.748 1.99c0.077 0.04 0.148 0.06 0.244 0.04 0.101-0.01 0.206-0.11 0.327-0.27l0.181 0.11-1.711 2.41-0.181-0.13c0.12-0.18 0.18-0.3 0.152-0.42-0.012-0.08-0.067-0.15-0.115-0.19l-2.756-1.99-1.297 1.81 4.168 3c0.197 0.15 0.439 0.08 0.713-0.19l0.17 0.13-1.74 2.42-0.133-0.11c0.061-0.2 0.085-0.34 0.049-0.4-0.041-0.07-0.106-0.14-0.235-0.21l-6.533-4.71 0.162-0.21c0.109 0.06 0.222 0.09 0.326 0.12 0.117 0.02 0.23-0.03 0.323-0.17l4.994-7c0.104-0.13 0.113-0.24 0.052-0.34-0.04-0.1-0.118-0.19-0.218-0.28l0.158-0.22zm114.57 5.91l0.14 0.23c-0.12 0.09-0.17 0.2-0.09 0.32 0.03 0.04 0.19 0.19 0.48 0.42 0.28 0.25 6.54 5.22 6.85 5.48 0.06 0.05 0.14 0.08 0.22 0.08 0.09 0 0.14-0.03 0.2-0.07l0.14 0.23-2.47 1.61-0.15-0.23c0.03-0.03 0.07-0.06 0.12-0.1 0.06-0.04 0.05-0.1-0.01-0.19-0.04-0.06-0.11-0.12-0.2-0.21-0.11-0.1-0.95-0.75-1.02-0.82l-3.59 2.15c0.03 0.12 0.21 1.13 0.22 1.27 0.04 0.13 0.06 0.21 0.09 0.28 0.06 0.09 0.11 0.11 0.17 0.11 0.07-0.02 0.11-0.04 0.13-0.06l0.15 0.24-2.36 1.29-0.13-0.24c0.06-0.03 0.11-0.08 0.13-0.15 0.06-0.06 0.08-0.15 0.06-0.23-0.23-1.08-1.51-7.62-1.62-8.19-0.13-0.57-0.23-0.92-0.26-0.99-0.07-0.11-0.16-0.14-0.31-0.08l-0.13-0.22 3.24-1.93zm-101.66 2.58l7.307 3.71c0.076 0.04 0.141 0.05 0.242 0.02 0.097-0.02 0.181-0.12 0.273-0.3l0.198 0.09-1.373 2.71-0.19-0.1c0.097-0.2 0.132-0.35 0.096-0.43-0.028-0.09-0.084-0.17-0.149-0.21l-4.701-2.38-0.816 1.63 3.027 1.54c0.056 0.03 0.133 0.02 0.246 0.01 0.085-0.03 0.175-0.14 0.283-0.32l0.198 0.09-1.334 2.64-0.198-0.1c0.093-0.2 0.136-0.34 0.092-0.43-0.028-0.11-0.076-0.17-0.152-0.19l-3.029-1.55-1.014 2 4.599 2.32h0.002c0.202 0.11 0.427 0.01 0.668-0.3l0.182 0.11-1.338 2.64-0.152-0.08c0.032-0.22 0.031-0.35-0.018-0.41-0.048-0.06-0.132-0.11-0.265-0.17l-7.176-3.66 0.129-0.22c0.125 0.04 0.237 0.06 0.349 0.07 0.109 0 0.197-0.06 0.27-0.21l3.885-7.68c0.088-0.14 0.088-0.26 0.004-0.36-0.061-0.07-0.145-0.16-0.266-0.22l0.121-0.26zm101.16 0.47l0.76 4.16 2.58-1.54-3.34-2.62zm-6.21 0.79l0.11 0.25c-0.13 0.07-0.23 0.16-0.28 0.24-0.09 0.09-0.09 0.2 0 0.34l3.57 7.79c0.07 0.15 0.16 0.24 0.25 0.24 0.11 0 0.22-0.03 0.37-0.08l0.1 0.25-2.98 1.5-0.12-0.26c0.08-0.03 0.17-0.09 0.3-0.18 0.11-0.07 0.11-0.18 0.05-0.29-0.05-0.12-0.28-0.31-0.66-0.53-0.42-0.23-0.92-0.5-1.52-0.83-0.61-0.32-3.54-1.88-4.28-2.35l-0.03 0.06 2.46 5.37c0.06 0.13 0.15 0.22 0.25 0.24 0.1 0 0.22-0.03 0.34-0.07l0.12 0.24-2.85 1.21-0.12-0.25c0.12-0.06 0.19-0.1 0.26-0.21 0.06-0.08 0.06-0.19-0.01-0.34l-3.57-7.78c-0.08-0.17-0.16-0.24-0.27-0.24-0.1 0-0.22 0-0.34 0.06l-0.12-0.26 3.96-1.69 0.11 0.25c-0.07 0.04-0.13 0.1-0.19 0.18-0.07 0.08-0.07 0.2 0.01 0.33 0.04 0.06 0.16 0.13 0.45 0.29 0.31 0.17 3.8 2.09 4.37 2.4l-1.86-4.05c-0.07-0.16-0.17-0.23-0.25-0.23-0.11 0-0.23 0.02-0.36 0.06l-0.11-0.24 2.84-1.42zm-83.381 4.24l3.549 1.33-0.099 0.26c-0.162-0.04-0.255 0-0.303 0.13-0.012 0.04-0.037 0.25-0.037 0.62 0 0.39 0.045 8.39 0.029 8.79 0 0.1 0.024 0.18 0.084 0.24 0.044 0.04 0.101 0.1 0.178 0.12l-0.106 0.24-2.787-0.94 0.098-0.25c0.028 0.01 0.056 0.02 0.129 0.03 0.052 0.01 0.104-0.05 0.152-0.14 0.012-0.05 0.029-0.15 0.029-0.29v-1.31l-3.923-1.47c-0.085 0.11-0.754 0.89-0.842 1-0.085 0.1-0.14 0.19-0.168 0.23-0.036 0.09-0.029 0.17 0.027 0.21 0.057 0.03 0.077 0.05 0.117 0.06l-0.09 0.25-2.488-1.02 0.11-0.26c0.06 0.02 0.132 0.03 0.216 0.02 0.077-0.01 0.133-0.04 0.19-0.1 0.705-0.86 5.014-5.97 5.385-6.42 0.366-0.44 0.563-0.69 0.584-0.77 0.064-0.13 0.016-0.23-0.125-0.3l0.091-0.26zm64.301 0.26l0.41 1.4-3.37 1.01-0.43-1.4 3.39-1.01zm8.36 0.32l0.09 0.25c-0.17 0.07-0.29 0.15-0.37 0.23-0.09 0.07-0.1 0.19-0.04 0.34l2.88 8.08c0.05 0.14 0.12 0.23 0.25 0.24 0.11 0.01 0.25-0.01 0.42-0.06l0.09 0.26-3.35 1.21-0.09-0.26c0.18-0.08 0.29-0.14 0.37-0.23 0.1-0.06 0.1-0.18 0.04-0.34l-2.9-8.08c-0.06-0.16-0.13-0.24-0.25-0.24-0.11-0.02-0.24 0-0.42 0.05l-0.09-0.26 3.37-1.19zm-71.782 2.26l-2.779 3.19 2.816 1.06-0.037-4.25zm64.322 0.2l0.08 0.26c-0.14 0.05-0.22 0.16-0.17 0.29 0.02 0.04 0.13 0.21 0.35 0.52 0.21 0.31 4.9 6.8 5.16 7.14 0.03 0.06 0.08 0.11 0.17 0.12 0.08 0.02 0.16 0.02 0.22 0l0.06 0.26-2.84 0.87-0.05-0.27c0.03 0 0.07-0.01 0.11-0.05 0.06-0.03 0.08-0.09 0.05-0.2-0.02-0.05-0.06-0.14-0.13-0.27-0.09-0.1-0.69-0.97-0.76-1.06l-4.04 1.12c0 0.11-0.08 1.17-0.1 1.29-0.01 0.15-0.01 0.24 0 0.29 0.03 0.12 0.08 0.16 0.14 0.16 0.06-0.01 0.1-0.01 0.12-0.01l0.08 0.26-2.61 0.62-0.07-0.27c0.07-0.03 0.14-0.05 0.2-0.11 0.06-0.07 0.09-0.13 0.09-0.21 0.06-1.13 0.59-7.78 0.64-8.35 0.03-0.6 0.06-0.91 0.03-1-0.03-0.12-0.12-0.18-0.28-0.15l-0.09-0.27 3.64-0.98zm-7.6 1.26l0.13 0.65c-0.29 0.22-0.56 0.52-0.79 0.86-0.22 0.35-0.33 0.76-0.31 1.26 0.42-0.07 0.79-0.04 1.14 0.16 0.33 0.18 0.56 0.57 0.69 1.13 0.08 0.49 0.02 0.88-0.22 1.19-0.2 0.32-0.48 0.52-0.84 0.59-0.48 0.09-0.87-0.04-1.15-0.4-0.32-0.35-0.51-0.78-0.61-1.34-0.09-0.48-0.09-0.93-0.01-1.33 0.08-0.41 0.21-0.79 0.39-1.13 0.2-0.34 0.44-0.66 0.74-0.93 0.26-0.27 0.57-0.5 0.84-0.71zm-41.65 0.48c0.3 0.01 0.58 0.05 0.85 0.1 0.54 0.12 1.08 0.33 1.61 0.64 0.51 0.3 0.96 0.71 1.32 1.21 0.38 0.51 0.65 1.1 0.79 1.82 0.14 0.67 0.14 1.45-0.05 2.32-0.18 0.9-0.47 1.61-0.88 2.19-0.41 0.57-0.9 1.01-1.43 1.32-0.54 0.3-1.11 0.48-1.68 0.53-0.6 0.07-1.2 0.03-1.75-0.07-0.54-0.12-1.09-0.32-1.61-0.61-0.51-0.31-0.985-0.71-1.351-1.19-0.359-0.5-0.625-1.08-0.774-1.76-0.153-0.69-0.148-1.48 0.045-2.37 0.174-0.87 0.472-1.6 0.895-2.18 0.395-0.56 0.895-1.01 1.435-1.31 0.53-0.32 1.11-0.52 1.7-0.6 0.29-0.03 0.59-0.05 0.88-0.04zm47.98 1.04l-0.39 4.22 2.89-0.79-2.5-3.43zm-18.05 0.85l0.02 0.28c-0.14 0.02-0.23 0.11-0.21 0.23 0 0.06 0.07 0.23 0.23 0.59 0.14 0.34 3.46 7.62 3.63 8.03 0.04 0.06 0.09 0.11 0.16 0.15 0.07 0.02 0.14 0.04 0.23 0.04v0.27l-2.96 0.29-0.02-0.27c0.04 0 0.1-0.02 0.15-0.03 0.06-0.02 0.08-0.09 0.07-0.19 0-0.05-0.02-0.16-0.07-0.26-0.05-0.14-0.48-1.1-0.55-1.21l-4.16 0.28c-0.03 0.14-0.31 1.14-0.36 1.25-0.04 0.14-0.05 0.24-0.05 0.3 0 0.11 0.05 0.16 0.1 0.18 0.07 0.01 0.12 0 0.14 0l0.02 0.28-2.68 0.08-0.01-0.27c0.07 0 0.15-0.03 0.2-0.07 0.07-0.05 0.12-0.1 0.14-0.18 0.28-1.08 2.11-7.5 2.26-8.08 0.15-0.56 0.24-0.86 0.23-0.94-0.01-0.13-0.1-0.21-0.25-0.22l-0.02-0.27 3.76-0.26zm-16.85 0.05l3.36 0.22v0.27c-0.13 0.01-0.24 0.04-0.35 0.08s-0.17 0.12-0.17 0.3l-0.12 4.18c0.17-0.19 2.8-2.89 3.02-3.14 0.21-0.24 0.41-0.46 0.54-0.61 0.12-0.17 0.19-0.27 0.19-0.3 0.02-0.17-0.05-0.28-0.15-0.33s-0.19-0.09-0.29-0.1v-0.26l3.61 0.01-0.03 0.26c-0.18 0.03-0.42 0.18-0.71 0.47-0.29 0.26-0.62 0.59-0.97 0.95-0.34 0.36-1.66 1.87-1.9 2.07l2.8 5.58c0.06 0.13 0.11 0.21 0.16 0.27 0.08 0.04 0.16 0.07 0.24 0.09l-0.01 0.27-3.65-0.04v-0.27c0.09 0 0.2-0.01 0.32-0.05 0.12-0.05 0.21-0.14 0.21-0.32 0-0.04-0.05-0.15-0.12-0.33-0.08-0.17-1.68-3.39-1.73-3.51l-1.62 1.86-0.06 1.84c-0.01 0.18 0.05 0.29 0.16 0.33 0.1 0.06 0.21 0.09 0.34 0.09l-0.01 0.28-3.39-0.19v-0.27c0.11 0.02 0.22 0 0.31-0.06 0.1-0.05 0.15-0.16 0.17-0.33l0.28-8.61c0-0.16-0.07-0.28-0.15-0.34-0.08-0.05-0.18-0.08-0.3-0.07l0.02-0.29zm-13.21 0.46c-0.16 0-0.33 0.02-0.49 0.05-0.3 0.06-0.61 0.19-0.88 0.37s-0.5 0.42-0.69 0.72c-0.2 0.31-0.33 0.67-0.4 1.09-0.1 0.39-0.12 0.78-0.05 1.13 0.05 0.35 0.15 0.67 0.33 0.95 0.19 0.28 0.4 0.51 0.67 0.69 0.28 0.2 0.55 0.3 0.87 0.37 0.37 0.08 0.7 0.08 1.01 0.01 0.33-0.06 0.61-0.17 0.87-0.35 0.28-0.2 0.51-0.43 0.7-0.74 0.21-0.3 0.33-0.65 0.41-1.07s0.09-0.8 0.04-1.15-0.17-0.66-0.34-0.94-0.4-0.5-0.66-0.69c-0.27-0.18-0.55-0.32-0.89-0.38-0.17-0.04-0.34-0.06-0.5-0.06zm28.27 1.98l-1.23 4.05 3-0.2-1.77-3.85z" transform="matrix(.8 0 0 -.8 280.19 774.27)" fill="#fff"/></g></g></svg>
